<svg width="28" height="28" viewBox="0 0 28 28" fill="none" xmlns="http://www.w3.org/2000/svg">
<g clip-path="url(#clip0_289_476)">
<path d="M27.75 19.25V18.75H27.25H24.25V18H27.25C27.939 18 28.5 18.561 28.5 19.25V25.75H24.625C24.2935 25.75 23.9755 25.6183 23.7411 25.3839C23.5067 25.1495 23.375 24.8315 23.375 24.5V22.75C23.375 22.4185 23.5067 22.1005 23.7411 21.8661C23.9755 21.6317 24.2935 21.5 24.625 21.5H27.25H27.75V21V19.25ZM27.25 25H27.75V24.5V22.75V22.25H27.25H24.625H24.125V22.75V24.5V25H24.625H27.25ZM18.875 17.5V18H19.375H21.5V18.75H19.375H18.875V19.25V24.5V25H19.375H21.5V25.75H19.375C18.686 25.75 18.125 25.189 18.125 24.5V19.25V18.75H17.625H16.375V18H17.625H18.125V17.5V16.25H18.875V17.5ZM13.75 19.25V18.75H13.25H10.25V18H13.25C13.939 18 14.5 18.561 14.5 19.25V25.75H10.625C10.2935 25.75 9.97554 25.6183 9.74112 25.3839C9.5067 25.1495 9.375 24.8315 9.375 24.5V22.75C9.375 22.4185 9.5067 22.1005 9.74112 21.8661C9.97554 21.6317 10.2935 21.5 10.625 21.5H13.25H13.75V21V19.25ZM13.25 25H13.75V24.5V22.75V22.25H13.25H10.625H10.125V22.75V24.5V25H10.625H13.25ZM5.375 18H5.875V17.5V14.5H6.625V25.75H2.75C2.06102 25.75 1.5 25.189 1.5 24.5V19.25C1.5 18.561 2.06102 18 2.75 18H5.375ZM2.75 18.75H2.25V19.25V24.5V25H2.75H5.375H5.875V24.5V19.25V18.75H5.375H2.75ZM26.75 7.8755V14.375H26V7.87501V7.37501H25.5H14.8449L11.4913 4.02145L11.3449 3.87501H11.1378H4.5H4V4.37501V11.75H3.25L3.25 4.3755C3.25 4.37543 3.25 4.37536 3.25 4.37529C3.25039 4.04381 3.38224 3.72602 3.61663 3.49163C3.85102 3.25724 4.16881 3.12539 4.50028 3.12501L11.1378 3.12501L11.139 3.125C11.3028 3.12459 11.465 3.15667 11.6163 3.21937C11.7676 3.28207 11.905 3.37416 12.0204 3.4903L12.0214 3.49131L15.0087 6.47856L15.1551 6.62501H15.3622L25.4995 6.62501C25.4996 6.62501 25.4998 6.62501 25.4999 6.62501C25.8313 6.62544 26.149 6.75729 26.3834 6.99163C26.6178 7.22608 26.7497 7.54395 26.75 7.8755Z" fill="white" stroke="white"/>
</g>
<defs>
<clipPath id="clip0_289_476">
<rect width="28" height="28" fill="white"/>
</clipPath>
</defs>
</svg>
