<svg width="67" height="67" viewBox="0 0 67 67" fill="none" xmlns="http://www.w3.org/2000/svg">
<path d="M55.8334 29.3125H61.4167V61.4167H55.8334V29.3125ZM47.4584 39.0833H53.0417V61.4167H47.4584V39.0833ZM39.0834 32.1042H44.6667V61.4167H39.0834V32.1042ZM30.7084 40.4792H36.2917V61.4167H30.7084V40.4792ZM22.3334 44.6667H27.9167V61.4167H22.3334V44.6667ZM13.9584 41.875H19.5417V61.4167H13.9584V41.875ZM5.58337 47.4583H11.1667V61.4167H5.58337V47.4583Z" fill="#4CAF50"/>
<path d="M55.9729 12.7021L47.4583 21.2167L41.8749 15.6333L27.9166 29.5917L20.9374 22.6125L6.42078 37.1292L10.3291 41.0375L20.9374 30.4292L27.9166 37.4083L41.8749 23.45L47.4583 29.0333L59.8812 16.6104L55.9729 12.7021Z" fill="#388E3C"/>
<path d="M61.4166 11.1667H48.8541L61.4166 23.7292V11.1667Z" fill="#388E3C"/>
</svg>
