<svg width="72" height="72" viewBox="0 0 72 72" fill="none" xmlns="http://www.w3.org/2000/svg">
<path d="M58.5 60L61.5 60L61.5 46.5L54 46.5L54 22.5L37.5 22.5L37.5 12L34.5 12L34.5 22.5L18 22.5L18 46.5L10.5 46.5L10.5 60L13.5 60L13.5 49.5L25.5 49.5L25.5 60L28.5 60L28.5 46.5L21 46.5L21 25.5L51 25.5L51 46.5L43.5 46.5L43.5 60L46.5 60L46.5 49.5L58.5 49.5L58.5 60Z" fill="#CFD8DC"/>
<path d="M42 6L42 18L30 18L30 6L42 6Z" fill="#00BCD4"/>
<path d="M51 54L51 66L39 66L39 54L51 54ZM66 54L66 66L54 66L54 54L66 54ZM58.5 30L58.5 42L46.5 42L46.5 30L58.5 30ZM25.5 30L25.5 42L13.5 42L13.5 30L25.5 30ZM18 54L18 66L6 66L6 54L18 54ZM33 54L33 66L21 66L21 54L33 54Z" fill="#3F51B5"/>
</svg>
