<svg width="79" height="79" viewBox="0 0 79 79" fill="none" xmlns="http://www.w3.org/2000/svg">
<path d="M65.8335 36.2084H52.6668L46.0835 42.7917V19.75C46.0835 16.1292 49.046 13.1667 52.6668 13.1667H65.8335C69.4543 13.1667 72.4168 16.1292 72.4168 19.75V29.625C72.4168 33.2459 69.4543 36.2084 65.8335 36.2084Z" fill="#2196F3"/>
<path d="M27.9792 44.4375C35.2509 44.4375 41.1458 38.5426 41.1458 31.2709C41.1458 23.9991 35.2509 18.1042 27.9792 18.1042C20.7074 18.1042 14.8125 23.9991 14.8125 31.2709C14.8125 38.5426 20.7074 44.4375 27.9792 44.4375Z" fill="#FFA726"/>
<path d="M49.3752 60.4021C49.3752 60.4021 43.4502 49.375 27.9793 49.375C12.5085 49.375 6.5835 60.4021 6.5835 60.4021V65.8333H49.3752V60.4021Z" fill="#607D8B"/>
</svg>
