<svg width="30" height="31" viewBox="0 0 30 31" fill="none" xmlns="http://www.w3.org/2000/svg">
<path d="M14.0625 14.5312L14.1138 14.5054C14.274 14.4227 14.4539 14.3891 14.6321 14.4087C14.8102 14.4284 14.9792 14.5003 15.1191 14.6161C15.2589 14.7319 15.3636 14.8867 15.421 15.0621C15.4783 15.2375 15.4858 15.4262 15.4425 15.6059L14.5575 19.2691C14.5139 19.4488 14.5212 19.6377 14.5784 19.8134C14.6356 19.989 14.7403 20.144 14.8802 20.26C15.02 20.376 15.1892 20.4481 15.3675 20.4677C15.5458 20.4874 15.7259 20.4538 15.8862 20.3709L15.9375 20.3437M26.25 15.5C26.25 17.0266 25.959 18.5383 25.3936 19.9487C24.8283 21.3591 23.9996 22.6406 22.955 23.7201C21.9103 24.7996 20.6701 25.6559 19.3052 26.2401C17.9403 26.8243 16.4774 27.125 15 27.125C13.5226 27.125 12.0597 26.8243 10.6948 26.2401C9.3299 25.6559 8.08971 24.7996 7.04505 23.7201C6.00039 22.6406 5.17172 21.3591 4.60636 19.9487C4.04099 18.5383 3.75 17.0266 3.75 15.5C3.75 12.4169 4.93526 9.45999 7.04505 7.27988C9.15483 5.09977 12.0163 3.875 15 3.875C17.9837 3.875 20.8452 5.09977 22.955 7.27988C25.0647 9.45999 26.25 12.4169 26.25 15.5ZM15 10.6562H15.01V10.6666H15V10.6562Z" stroke="white" stroke-width="1.5" stroke-linecap="round" stroke-linejoin="round"/>
</svg>
