<svg width="36" height="36" viewBox="0 0 36 36" fill="none" xmlns="http://www.w3.org/2000/svg">
<path d="M32.5 12C30.325 12 29.11 14.16 29.605 15.765L24.28 21.105C23.83 20.97 23.17 20.97 22.72 21.105L18.895 17.28C19.405 15.675 18.19 13.5 16 13.5C13.825 13.5 12.595 15.66 13.105 17.28L6.265 24.105C4.66 23.61 2.5 24.825 2.5 27C2.5 28.65 3.85 30 5.5 30C7.675 30 8.89 27.84 8.395 26.235L15.22 19.395C15.67 19.53 16.33 19.53 16.78 19.395L20.605 23.22C20.095 24.825 21.31 27 23.5 27C25.675 27 26.905 24.84 26.395 23.22L31.735 17.895C33.34 18.39 35.5 17.175 35.5 15C35.5 13.35 34.15 12 32.5 12Z" fill="white"/>
<path d="M23.5 13.5L24.91 10.395L28 9L24.91 7.605L23.5 4.5L22.12 7.605L19 9L22.12 10.395L23.5 13.5ZM6.25 16.5L7 13.5L10 12.75L7 12L6.25 9L5.5 12L2.5 12.75L5.5 13.5L6.25 16.5Z" fill="white"/>
</svg>
